<mxfile host="app.diagrams.net" agent="Mozilla/5.0 (Macintosh; Intel Mac OS X 10_15_7) AppleWebKit/537.36 (KHTML, like Gecko) Chrome/129.0.0.0 Safari/537.36" version="24.7.14">
  <diagram name="Page-1" id="yVfFV9pyPKtctsXBTbKy">
    <mxGraphModel dx="1562" dy="961" grid="1" gridSize="10" guides="1" tooltips="1" connect="1" arrows="1" fold="1" page="1" pageScale="1" pageWidth="827" pageHeight="1169" math="0" shadow="0">
      <root>
        <mxCell id="0" />
        <mxCell id="1" parent="0" />
        <mxCell id="FbOIm3eJ60noa3IpwHOt-22" style="edgeStyle=orthogonalEdgeStyle;rounded=0;orthogonalLoop=1;jettySize=auto;html=1;exitX=0.5;exitY=1;exitDx=0;exitDy=0;entryX=0.5;entryY=0;entryDx=0;entryDy=0;" edge="1" parent="1" source="FbOIm3eJ60noa3IpwHOt-1" target="FbOIm3eJ60noa3IpwHOt-2">
          <mxGeometry relative="1" as="geometry" />
        </mxCell>
        <mxCell id="FbOIm3eJ60noa3IpwHOt-1" value="Start" style="rounded=0;whiteSpace=wrap;html=1;" vertex="1" parent="1">
          <mxGeometry x="310" y="40" width="120" height="60" as="geometry" />
        </mxCell>
        <mxCell id="FbOIm3eJ60noa3IpwHOt-6" style="edgeStyle=orthogonalEdgeStyle;rounded=0;orthogonalLoop=1;jettySize=auto;html=1;exitX=1;exitY=0.5;exitDx=0;exitDy=0;entryX=0.5;entryY=0;entryDx=0;entryDy=0;" edge="1" parent="1" source="FbOIm3eJ60noa3IpwHOt-2" target="FbOIm3eJ60noa3IpwHOt-5">
          <mxGeometry relative="1" as="geometry" />
        </mxCell>
        <mxCell id="FbOIm3eJ60noa3IpwHOt-7" value="3. Exit" style="edgeLabel;html=1;align=center;verticalAlign=middle;resizable=0;points=[];" vertex="1" connectable="0" parent="FbOIm3eJ60noa3IpwHOt-6">
          <mxGeometry x="-0.2127" y="2" relative="1" as="geometry">
            <mxPoint as="offset" />
          </mxGeometry>
        </mxCell>
        <mxCell id="FbOIm3eJ60noa3IpwHOt-8" style="edgeStyle=orthogonalEdgeStyle;rounded=0;orthogonalLoop=1;jettySize=auto;html=1;exitX=1;exitY=1;exitDx=0;exitDy=0;entryX=0.5;entryY=0;entryDx=0;entryDy=0;" edge="1" parent="1" source="FbOIm3eJ60noa3IpwHOt-2" target="FbOIm3eJ60noa3IpwHOt-4">
          <mxGeometry relative="1" as="geometry" />
        </mxCell>
        <mxCell id="FbOIm3eJ60noa3IpwHOt-9" value="2. Convert to string" style="edgeLabel;html=1;align=center;verticalAlign=middle;resizable=0;points=[];" vertex="1" connectable="0" parent="FbOIm3eJ60noa3IpwHOt-8">
          <mxGeometry x="-0.0844" y="1" relative="1" as="geometry">
            <mxPoint as="offset" />
          </mxGeometry>
        </mxCell>
        <mxCell id="FbOIm3eJ60noa3IpwHOt-16" style="edgeStyle=orthogonalEdgeStyle;rounded=0;orthogonalLoop=1;jettySize=auto;html=1;exitX=0;exitY=0.5;exitDx=0;exitDy=0;entryX=0.5;entryY=0;entryDx=0;entryDy=0;" edge="1" parent="1" source="FbOIm3eJ60noa3IpwHOt-2" target="FbOIm3eJ60noa3IpwHOt-3">
          <mxGeometry relative="1" as="geometry" />
        </mxCell>
        <mxCell id="FbOIm3eJ60noa3IpwHOt-23" value="1. Convert to ASCII" style="edgeLabel;html=1;align=center;verticalAlign=middle;resizable=0;points=[];" vertex="1" connectable="0" parent="FbOIm3eJ60noa3IpwHOt-16">
          <mxGeometry x="0.3898" y="-3" relative="1" as="geometry">
            <mxPoint as="offset" />
          </mxGeometry>
        </mxCell>
        <mxCell id="FbOIm3eJ60noa3IpwHOt-2" value="1. Convert to Ascii&lt;div&gt;2. Convert to string&lt;/div&gt;&lt;div&gt;3. Exit&lt;/div&gt;" style="rhombus;whiteSpace=wrap;html=1;" vertex="1" parent="1">
          <mxGeometry x="290" y="150" width="160" height="130" as="geometry" />
        </mxCell>
        <mxCell id="FbOIm3eJ60noa3IpwHOt-21" style="edgeStyle=orthogonalEdgeStyle;rounded=0;orthogonalLoop=1;jettySize=auto;html=1;exitX=0.5;exitY=1;exitDx=0;exitDy=0;" edge="1" parent="1" source="FbOIm3eJ60noa3IpwHOt-3" target="FbOIm3eJ60noa3IpwHOt-18">
          <mxGeometry relative="1" as="geometry" />
        </mxCell>
        <mxCell id="FbOIm3eJ60noa3IpwHOt-3" value="Enter the string to convert to ASCII" style="shape=parallelogram;perimeter=parallelogramPerimeter;whiteSpace=wrap;html=1;fixedSize=1;" vertex="1" parent="1">
          <mxGeometry x="70" y="350" width="120" height="60" as="geometry" />
        </mxCell>
        <mxCell id="FbOIm3eJ60noa3IpwHOt-10" style="edgeStyle=orthogonalEdgeStyle;rounded=0;orthogonalLoop=1;jettySize=auto;html=1;exitX=0.5;exitY=1;exitDx=0;exitDy=0;entryX=0.5;entryY=0;entryDx=0;entryDy=0;" edge="1" parent="1" source="FbOIm3eJ60noa3IpwHOt-4" target="FbOIm3eJ60noa3IpwHOt-11">
          <mxGeometry relative="1" as="geometry">
            <mxPoint x="400" y="520" as="targetPoint" />
            <Array as="points">
              <mxPoint x="400" y="465" />
              <mxPoint x="401" y="465" />
            </Array>
          </mxGeometry>
        </mxCell>
        <mxCell id="FbOIm3eJ60noa3IpwHOt-4" value="Enter the Ascii string to decode" style="shape=parallelogram;perimeter=parallelogramPerimeter;whiteSpace=wrap;html=1;fixedSize=1;" vertex="1" parent="1">
          <mxGeometry x="340" y="350" width="160" height="60" as="geometry" />
        </mxCell>
        <mxCell id="FbOIm3eJ60noa3IpwHOt-5" value="Stop" style="rounded=0;whiteSpace=wrap;html=1;" vertex="1" parent="1">
          <mxGeometry x="570" y="350" width="120" height="60" as="geometry" />
        </mxCell>
        <mxCell id="FbOIm3eJ60noa3IpwHOt-13" style="edgeStyle=orthogonalEdgeStyle;rounded=0;orthogonalLoop=1;jettySize=auto;html=1;exitX=0.5;exitY=1;exitDx=0;exitDy=0;" edge="1" parent="1" source="FbOIm3eJ60noa3IpwHOt-11" target="FbOIm3eJ60noa3IpwHOt-12">
          <mxGeometry relative="1" as="geometry" />
        </mxCell>
        <mxCell id="FbOIm3eJ60noa3IpwHOt-11" value="Convert ASCII to string" style="rounded=0;whiteSpace=wrap;html=1;" vertex="1" parent="1">
          <mxGeometry x="340" y="530" width="120" height="60" as="geometry" />
        </mxCell>
        <mxCell id="FbOIm3eJ60noa3IpwHOt-14" style="edgeStyle=orthogonalEdgeStyle;rounded=0;orthogonalLoop=1;jettySize=auto;html=1;exitX=0.5;exitY=1;exitDx=0;exitDy=0;entryX=0;entryY=1;entryDx=0;entryDy=0;" edge="1" parent="1" source="FbOIm3eJ60noa3IpwHOt-12" target="FbOIm3eJ60noa3IpwHOt-2">
          <mxGeometry relative="1" as="geometry" />
        </mxCell>
        <mxCell id="FbOIm3eJ60noa3IpwHOt-12" value="Print String" style="rounded=0;whiteSpace=wrap;html=1;" vertex="1" parent="1">
          <mxGeometry x="340" y="630" width="120" height="60" as="geometry" />
        </mxCell>
        <mxCell id="FbOIm3eJ60noa3IpwHOt-17" style="edgeStyle=orthogonalEdgeStyle;rounded=0;orthogonalLoop=1;jettySize=auto;html=1;exitX=0.5;exitY=1;exitDx=0;exitDy=0;" edge="1" parent="1" source="FbOIm3eJ60noa3IpwHOt-18" target="FbOIm3eJ60noa3IpwHOt-19">
          <mxGeometry relative="1" as="geometry" />
        </mxCell>
        <mxCell id="FbOIm3eJ60noa3IpwHOt-18" value="Convert String to ASCII" style="rounded=0;whiteSpace=wrap;html=1;" vertex="1" parent="1">
          <mxGeometry x="80" y="530" width="120" height="60" as="geometry" />
        </mxCell>
        <mxCell id="FbOIm3eJ60noa3IpwHOt-20" style="edgeStyle=orthogonalEdgeStyle;rounded=0;orthogonalLoop=1;jettySize=auto;html=1;exitX=0.5;exitY=1;exitDx=0;exitDy=0;entryX=0;entryY=1;entryDx=0;entryDy=0;" edge="1" parent="1" source="FbOIm3eJ60noa3IpwHOt-19" target="FbOIm3eJ60noa3IpwHOt-2">
          <mxGeometry relative="1" as="geometry" />
        </mxCell>
        <mxCell id="FbOIm3eJ60noa3IpwHOt-19" value="Print ASCII" style="rounded=0;whiteSpace=wrap;html=1;" vertex="1" parent="1">
          <mxGeometry x="80" y="630" width="120" height="60" as="geometry" />
        </mxCell>
      </root>
    </mxGraphModel>
  </diagram>
</mxfile>
